<svg version="1.1" id="Layer_1" xmlns="http://www.w3.org/2000/svg"
    xmlns:xlink="http://www.w3.org/1999/xlink" x="0px" y="0px"
    width="28" height="28" viewBox="0 0 400 400" enable-background="new 0 0 400 400"
    xml:space="preserve">
    <circle cx="200" cy="200" r="200" fill="#43E660"/>
    <path fill="#010201" opacity="1.000000" stroke="none" 
        d="M163.157379,166.921280 
        C164.350647,166.871201 165.141510,166.821457 167.187073,166.692764 
        C154.833664,154.967422 143.218933,143.943192 131.686813,132.997391 
        C138.525879,126.525986 145.227341,120.184769 151.787521,113.977234 
        C162.126282,124.150185 173.433990,135.276535 185.596344,147.243820 
        C185.596344,129.989609 185.596344,113.942276 185.596344,97.483612 
        C195.766190,97.483612 205.464874,97.483612 215.720673,97.483612 
        C215.720673,113.754433 215.720673,129.980270 215.720673,145.998032 
        C227.372482,134.686523 238.852081,123.542206 250.004868,112.715157 
        C257.102600,119.504761 263.816803,125.927475 270.763153,132.572266 
        C258.937958,143.787354 247.271591,154.851791 234.629974,166.841171 
        C252.276901,166.841171 268.630890,166.841171 285.242004,166.841171 
        C285.242004,176.514679 285.242004,185.605286 285.242004,195.216858 
        C268.780151,195.216858 252.519012,195.216858 236.649078,195.216858 
        C247.767639,207.029282 258.827423,218.779236 269.913177,230.556824 
        C263.590851,236.935806 257.101227,243.483536 250.488998,250.154999 
        C234.104645,233.929764 217.706039,217.690414 201.006653,201.153214 
        C184.539124,217.856186 168.321716,234.305450 152.369034,250.486206 
        C145.329041,243.333557 138.942917,236.845245 132.820938,230.625320 
        C143.286316,219.422867 154.344269,207.586090 165.590469,195.547836 
        C149.678711,195.547836 133.368561,195.547836 116.781509,195.547836 
        C116.781509,185.705811 116.781509,176.625443 116.781509,166.921600 
        C132.220596,166.921600 147.487778,166.921600 163.157379,166.921280 
    z"/>
    <path fill="#000201" opacity="1.000000" stroke="none" 
        d="M199.011215,236.067505 
        C204.808136,236.067505 210.107437,236.067505 215.737366,236.067505 
        C215.737366,258.659576 215.737366,280.867523 215.737366,303.389648 
        C205.895248,303.389648 196.173447,303.389648 186.223755,303.389648 
        C186.223755,281.003876 186.223755,258.908234 186.223755,236.067505 
        C190.337570,236.067505 194.425583,236.067505 199.011215,236.067505 
    z"/>
</svg>